
		<svg xmlns="http://www.w3.org/2000/svg" xmlns:xlink="http://www.w3.org/1999/xlink" version="1.1" width="3375" height="1312.5">
			
			<g transform="scale(18.75) translate(10, 10)">
				<defs id="SvgjsDefs9866"/><g id="SvgjsG9867" featureKey="root" fill="#000"/><g id="SvgjsG9868" featureKey="text1" fill="#000" transform="matrix(1.6603211682395456,0,0,1.6603211682395456,-1.394668451260468,-3.7474604130755083)"><path d="M13.58 9.82 q-1.08 -0.38 -2.18 -0.38 l-10.56 0 l0 13.12 l10.56 0 q1.1 0 2.18 -0.38 q1.96 -0.68 3.17 -2.39 t1.21 -3.79 t-1.21 -3.79 t-3.17 -2.39 z M13.22 21.14 q-0.84 0.3 -1.82 0.3 l-9.44 0 l0 -10.88 l9.44 0 q0.98 0 1.82 0.3 q1.62 0.58 2.62 2 t1 3.14 t-1 3.14 t-2.62 2 z M28.060000000000002 9.22 q-3.64 0 -6.24 1.98 q-2.66 2.02 -2.66 4.92 t2.66 4.92 q2.58 1.96 6.24 1.96 t6.22 -1.96 q2.66 -2.04 2.66 -4.92 t-2.66 -4.92 q-2.6 -1.98 -6.22 -1.98 z M35.84 16.12 q0 2.38 -2.28 4.07 t-5.5 1.69 t-5.5 -1.69 t-2.28 -4.07 q0 -2.4 2.28 -4.09 t5.5 -1.69 t5.5 1.69 t2.28 4.09 z M46.480000000000004 21.1 l-8.56 -12.82 l0 13.84 q0 0.54 0.56 0.54 q0.54 0 0.54 -0.54 l0 -10.18 l7.46 11.18 l7.44 -11.18 l0 10.18 q0 0.54 0.56 0.54 q0.54 0 0.54 -0.54 l0 -13.84 z M56.5 10.12 l0 12 q0 0.54 0.54 0.54 q0.56 0 0.56 -0.54 l0 0 l0 -12 q0 -0.56 -0.56 -0.56 q-0.54 0 -0.54 0.56 z M75.74 9.56 q-0.56 0 -0.56 0.56 l0 10.88 l-16 -12 l0 13.12 q0 0.54 0.56 0.54 t0.56 -0.54 l0 -10.9 l16 12 l0 -13.1 q0 -0.56 -0.56 -0.56 z M77.92 10.12 l0 12 q0 0.54 0.54 0.54 q0.56 0 0.56 -0.54 l0 0 l0 -12 q0 -0.56 -0.56 -0.56 q-0.54 0 -0.54 0.56 z M96.94 12.14 q-1.22 -1.42 -3.18 -2.22 t-4.18 -0.8 q-3.66 0 -6.24 1.96 q-2.66 2.02 -2.66 4.92 t2.66 4.92 q2.58 1.96 6.24 1.96 q2.22 0 4.18 -0.8 t3.18 -2.22 l0 0 q0.36 -0.44 -0.04 -0.78 q-0.16 -0.14 -0.38 -0.14 q-0.24 0 -0.4 0.18 l0 0 q-1.1 1.24 -2.83 1.95 t-3.71 0.71 q-3.22 0 -5.5 -1.7 t-2.28 -4.08 t2.28 -4.08 t5.5 -1.7 q1.98 0 3.71 0.71 t2.83 1.95 l0 0 q0.16 0.18 0.4 0.18 q0.22 0 0.38 -0.14 q0.4 -0.34 0.04 -0.78 z"/></g><g id="SvgjsG9869" featureKey="text3" fill="#000" transform="matrix(0.39760342121867437,0,0,0.39760342121867437,2.696746511337101,36.8959934052289)"><path d="M12.661 21.729 c0.11864 0.08458 0.084746 0.22017 -0.067797 0.37271 c-1.2544 1.2542 -2.8814 2.0168 -4.8983 2.0168 c-3.8136 0 -6.9322 -3.0168 -6.9322 -6.8812 c0 -3.8475 3.1186 -6.9153 6.9322 -6.9153 c1.9322 0 3.661 0.74576 4.9322 2.0169 c0.15254 0.15254 0.16949 0.27119 0.067797 0.35593 l-0.71186 0.59322 c-0.11864 0.10169 -0.22034 0.10169 -0.33898 -0.016949 c-0.71186 -0.74559 -2.1186 -1.6608 -3.8475 -1.6608 c-3.678 0 -5.7119 2.9831 -5.7119 5.6271 c0 2.678 2.0339 5.5932 5.7119 5.5932 c1.7288 0 3.0508 -0.88136 3.7966 -1.6271 c0.13559 -0.13559 0.23729 -0.16949 0.35593 -0.067797 z M56.50020338983051 23.77983 c0.067797 0.13559 0.034229 0.22017 -0.11831 0.22017 l-1.0339 0 c-0.11864 0 -0.18644 -0.050847 -0.23729 -0.15254 l-1.1864 -2.5254 l-8.1864 0 l-1.1864 2.5254 c-0.050847 0.10169 -0.11848 0.15254 -0.22034 0.15254 l-1.0678 0 c-0.11864 0 -0.18644 -0.08458 -0.11864 -0.22017 l6.3558 -13.271 c0.067797 -0.11864 0.11864 -0.15254 0.20322 -0.15254 l0.23745 0 c0.084746 0 0.15254 0.033898 0.20339 0.15254 z M46.313703389830515 20.1019 l7.0339 0 l-3.5254 -7.4576 z M96.94869491525424 23.76288 c0.084746 0.13559 0.033732 0.23712 -0.11881 0.23712 l-0.88136 0 c-0.27119 0 -0.45763 -0.22017 -0.55932 -0.37271 l-3 -4.2542 l-0.050847 0 l-3.8814 0 l0 4.3898 c0 0.15254 -0.067797 0.23712 -0.23729 0.23712 l-0.88136 0 c-0.15254 0 -0.22034 -0.08458 -0.22034 -0.23712 l0 -13.102 c0 -0.15254 0.067797 -0.22034 0.22034 -0.22034 l5 0 c3.1695 0 4.6273 2.4576 4.6273 4.4746 c0 1.7288 -1.0508 3.7288 -3.2712 4.3051 z M88.45749491525424 11.729 l0.00016552 6.3727 l3.7797 0 c2.3051 0 3.4066 -1.6102 3.4066 -3.2203 c0 -1.5932 -1.1186 -3.1524 -3.4068 -3.1524 l-3.7797 0 z M137.77144067796613 10.441 c0.15254 0 0.22051 0.067797 0.22051 0.22034 l0 0.84746 c0 0.13559 -0.067797 0.22034 -0.22034 0.22034 l-4.3729 0 l0 12.034 c0 0.15254 -0.067797 0.23712 -0.20339 0.23712 l-0.67797 0 c-0.30508 0 -0.45763 -0.18644 -0.45763 -0.47441 l0 -11.797 l-4.3729 0 c-0.15254 0 -0.23729 -0.084746 -0.23729 -0.22034 l0 -0.83051 c0 -0.16949 0.084746 -0.23729 0.23729 -0.23729 l10.085 0 z M186.22006779661018 10.424 c0.11864 0 0.23746 0.11897 0.13576 0.30558 l-6.3053 13.152 c-0.050847 0.10169 -0.13559 0.16933 -0.25424 0.16933 l-0.15238 0 c-0.10186 0 -0.20356 -0.067631 -0.23746 -0.16933 l-2.1695 -4.5593 l-2.1695 4.5763 c-0.050847 0.10153 -0.13559 0.16933 -0.25424 0.16933 l-0.15254 0 c-0.10169 0 -0.20339 -0.067797 -0.25424 -0.16933 l-6.3051 -13.169 c-0.084746 -0.16966 0.033898 -0.28831 0.15254 -0.28831 l1.1356 0 c0.15254 0 0.18644 0.10169 0.27119 0.27119 l5.0847 10.898 l1.7627 -3.8305 l-3.3559 -7.0678 c-0.084746 -0.16949 0.033898 -0.28814 0.15271 -0.28814 l1.1525 0 c0.13559 0 0.18644 0.10186 0.25407 0.27119 l2.5254 5.4915 l2.5085 -5.4746 c0.084746 -0.16949 0.13559 -0.27119 0.27119 -0.27119 l1.1525 0 c0.11864 0 0.22034 0.11864 0.13559 0.30508 l-3.339 7.0339 l1.7627 3.8136 l5.0847 -10.898 c0.067797 -0.16933 0.11864 -0.27119 0.25424 -0.27119 l1.1525 0 z M226.55038983050852 23.76288 c0.084746 0.13559 0.033732 0.23712 -0.11881 0.23712 l-0.88136 0 c-0.27119 0 -0.45763 -0.22017 -0.55932 -0.37271 l-3 -4.2542 l-0.050847 0 l-3.8814 0 l0 4.3898 c0 0.15254 -0.067797 0.23712 -0.23729 0.23712 l-0.88136 0 c-0.15254 0 -0.22034 -0.08458 -0.22034 -0.23712 l0 -13.102 c0 -0.15254 0.067797 -0.22034 0.22034 -0.22034 l5 0 c3.1695 0 4.6273 2.4576 4.6273 4.4746 c0 1.7288 -1.0508 3.7288 -3.2712 4.3051 z M218.0591898305085 11.729 l0.00016552 6.3727 l3.7797 0 c2.3051 0 3.4066 -1.6102 3.4066 -3.2203 c0 -1.5932 -1.1186 -3.1524 -3.4068 -3.1524 l-3.7797 0 z M258.72883559322037 10.441 l-0.86441 0 c-0.15254 0 -0.22034 0.067797 -0.22034 0.22034 l0 13.119 c0 0.13559 0.067797 0.22017 0.22034 0.22017 l0.88136 0 c0.11864 0 0.20339 -0.08458 0.20339 -0.22017 l0 -13.119 c0 -0.15254 -0.084746 -0.22034 -0.22034 -0.22034 z M301.7029152542373 18.5424 c0.16949 0 0.23746 0.067631 0.23746 0.23712 l0 3.0678 l-0.016949 0 c0 0.067797 -0.050847 0.16949 -0.13559 0.25424 c-1.2544 1.2542 -2.8814 2.0168 -4.8983 2.0168 c-3.8136 0 -6.9322 -3.0168 -6.9322 -6.8812 c0 -3.8475 3.1186 -6.9153 6.9322 -6.9153 c1.9322 0 3.661 0.74576 4.9322 2.0169 c0.15254 0.15254 0.16949 0.27119 0.067797 0.35593 l-0.71186 0.59322 c-0.11864 0.10169 -0.22034 0.10169 -0.33898 -0.016949 c-0.71186 -0.74559 -2.1186 -1.6608 -3.8475 -1.6608 c-3.678 0 -5.7119 2.9831 -5.7119 5.6271 c0 2.678 2.0339 5.5932 5.7119 5.5932 c1.5932 0 2.8475 -0.74576 3.61 -1.4407 l0 -1.5763 l-3.5763 0 c-0.15254 0 -0.22034 -0.067797 -0.22034 -0.20339 l0 -0.83051 c0 -0.16949 0.067797 -0.23729 0.22034 -0.23729 l4.678 0 z M343.8641186440679 10.441 c0.15254 0 0.23729 0.067963 0.23729 0.22051 l0 13.119 c0 0.13559 -0.067797 0.22017 -0.20339 0.22017 l-0.6778 0 c-0.30508 0 -0.44068 -0.18644 -0.44068 -0.45763 l0 -5.5593 l-8.5593 0 l0 5.7797 c0 0.15254 -0.067797 0.23712 -0.22034 0.23712 l-0.86441 0 c-0.16966 0 -0.23746 -0.08458 -0.23746 -0.23712 l0 -13.102 c0 -0.15254 0.067797 -0.22034 0.22034 -0.22034 l0.88136 0 c0.13559 0 0.22034 0.067797 0.22034 0.22034 l0 6 l8.5593 0 l0 -6 c0 -0.15254 0.067797 -0.22034 0.20339 -0.22034 l0.88136 0 z M385.34771186440685 10.441 c0.15254 0 0.22051 0.067797 0.22051 0.22034 l0 0.84746 c0 0.13559 -0.067797 0.22034 -0.22034 0.22034 l-4.3729 0 l0 12.034 c0 0.15254 -0.067797 0.23712 -0.20339 0.23712 l-0.67797 0 c-0.30508 0 -0.45763 -0.18644 -0.45763 -0.47441 l0 -11.797 l-4.3729 0 c-0.15254 0 -0.23729 -0.084746 -0.23729 -0.22034 l0 -0.83051 c0 -0.16949 0.084746 -0.23729 0.23729 -0.23729 l10.085 0 z"/></g>
			</g>
		</svg>
	